# Blender v2.79 (sub 0) OBJ File: ''
# www.blender.org
mtllib crate.mtl
o Wood_container1
v -7.499999 -0.000001 7.499996
v 7.499999 -0.000001 7.499996
v 6.224999 1.274998 7.499996
v -6.224999 1.274998 7.499996
v 7.499999 14.999996 7.500001
v 6.224999 13.724997 7.500001
v -7.499999 14.999996 7.500001
v -6.224999 13.724997 7.500001
v -7.499999 0.000004 -7.500001
v -7.499999 15.000002 -7.499997
v -6.224999 13.725002 -7.499997
v -6.224999 1.275003 -7.500001
v 7.499999 15.000002 -7.499997
v 6.224999 13.725002 -7.499997
v 7.499999 0.000004 -7.500001
v 6.224999 1.275003 -7.500001
v -6.224999 0.000003 -6.225002
v -6.224999 -0.000001 6.224997
v 6.224999 0.000003 -6.225002
v 6.224999 -0.000001 6.224997
v 7.499999 1.275003 -6.225002
v 7.499999 1.274999 6.224997
v 7.499999 13.725002 -6.224997
v 7.499999 13.724997 6.225001
v 6.224999 15.000002 -6.224997
v 6.224999 14.999996 6.225001
v -6.224999 15.000002 -6.224997
v -6.224999 14.999996 6.225001
v -7.499999 13.725002 -6.224997
v -7.499999 13.724997 6.225001
v -7.499999 1.275003 -6.225002
v -7.499999 1.274999 6.224997
v 6.224999 1.274998 7.199996
v -6.224999 1.274998 7.199996
v 6.224999 13.724997 7.200001
v -6.224999 13.724997 7.200001
v -6.224999 13.725002 -7.199997
v -6.224999 1.275003 -7.200001
v 6.224999 13.725002 -7.199997
v 6.224999 1.275003 -7.200001
v -6.224999 0.300003 -6.225002
v -6.224999 0.299999 6.224997
v 6.224999 0.300003 -6.225002
v 6.224999 0.299999 6.224997
v 7.199999 1.275003 -6.225002
v 7.199999 1.274999 6.224997
v 7.199999 13.725002 -6.224997
v 7.199999 13.724997 6.225001
v 6.224999 14.700001 -6.224997
v 6.224999 14.699997 6.225001
v -6.224999 14.700001 -6.224997
v -6.224999 14.699997 6.225001
v -7.199999 13.725002 -6.224997
v -7.199999 13.724997 6.225001
v -7.199999 1.275003 -6.225002
v -7.199999 1.274999 6.224997
vt 0.013000 0.505800
vt 0.497500 0.505800
vt 0.456300 0.547000
vt 0.054200 0.547000
vt 0.497500 0.990300
vt 0.456300 0.949100
vt 0.013000 0.990300
vt 0.054200 0.949100
vt 0.497500 0.505800
vt 0.497500 0.990300
vt 0.456300 0.949100
vt 0.456300 0.547000
vt 0.013000 0.990300
vt 0.054200 0.949100
vt 0.013000 0.505800
vt 0.054200 0.547000
vt 0.992800 0.497600
vt 0.992800 0.013100
vt 0.951600 0.054200
vt 0.951600 0.456400
vt 0.508300 0.013100
vt 0.549400 0.054200
vt 0.508300 0.497600
vt 0.549400 0.456400
vt 0.508300 0.505800
vt 0.992800 0.505800
vt 0.951600 0.547000
vt 0.549500 0.547000
vt 0.992800 0.990300
vt 0.951600 0.949100
vt 0.508300 0.990300
vt 0.549500 0.949100
vt 0.012900 0.497600
vt 0.012900 0.013100
vt 0.054100 0.054200
vt 0.054100 0.456400
vt 0.497400 0.013100
vt 0.456300 0.054200
vt 0.497400 0.497600
vt 0.456300 0.456400
vt 0.508300 0.990300
vt 0.992800 0.990300
vt 0.951600 0.949100
vt 0.549500 0.949100
vt 0.992800 0.505800
vt 0.951600 0.547000
vt 0.508300 0.505800
vt 0.549500 0.547000
vt 0.014400 0.510300
vt 0.489900 0.510300
vt 0.489900 0.528500
vt 0.014400 0.528500
vt 0.014400 0.510300
vt 0.489900 0.510300
vt 0.489900 0.528500
vt 0.014400 0.528500
vt 0.014400 0.510300
vt 0.489900 0.510300
vt 0.489900 0.528500
vt 0.014400 0.528500
vt 0.014400 0.510300
vt 0.489900 0.510300
vt 0.489900 0.528500
vt 0.014400 0.528500
vt 0.489900 0.528600
vt 0.014400 0.528600
vt 0.014400 0.510400
vt 0.489900 0.510400
vt 0.489900 0.528500
vt 0.014400 0.528500
vt 0.014400 0.510400
vt 0.489900 0.510400
vt 0.489900 0.528600
vt 0.014400 0.528600
vt 0.014400 0.510400
vt 0.489900 0.510400
vt 0.489900 0.528600
vt 0.014400 0.528600
vt 0.014400 0.510400
vt 0.489900 0.510400
vt 0.489900 0.528600
vt 0.014400 0.528600
vt 0.014400 0.510400
vt 0.489900 0.510400
vt 0.489900 0.528500
vt 0.014400 0.528500
vt 0.014400 0.510300
vt 0.489900 0.510300
vt 0.014400 0.510400
vt 0.489900 0.510400
vt 0.489900 0.528600
vt 0.014400 0.528600
vt 0.014400 0.510400
vt 0.489900 0.510400
vt 0.489900 0.528600
vt 0.014400 0.528600
vt 0.489900 0.528500
vt 0.014400 0.528500
vt 0.014400 0.510300
vt 0.489900 0.510300
vt 0.014400 0.510400
vt 0.489900 0.510400
vt 0.489900 0.528600
vt 0.014400 0.528600
vt 0.014400 0.510400
vt 0.489900 0.510400
vt 0.489900 0.528600
vt 0.014400 0.528600
vt 0.014400 0.510400
vt 0.489900 0.510400
vt 0.489900 0.528600
vt 0.014400 0.528600
vt 0.489900 0.528500
vt 0.014400 0.528500
vt 0.014400 0.510300
vt 0.489900 0.510300
vt 0.014400 0.510400
vt 0.489900 0.510400
vt 0.489900 0.528600
vt 0.014400 0.528600
vt 0.014400 0.510400
vt 0.489900 0.510400
vt 0.489900 0.528600
vt 0.014400 0.528600
vt 0.489900 0.528600
vt 0.014400 0.528600
vt 0.014400 0.510400
vt 0.489900 0.510400
vt 0.489900 0.528600
vt 0.014400 0.528600
vt 0.014400 0.510400
vt 0.489900 0.510400
vt 0.489900 0.528600
vt 0.014400 0.528600
vt 0.014400 0.510400
vt 0.489900 0.510400
vt 0.014400 0.510400
vt 0.489900 0.510400
vt 0.489900 0.528600
vt 0.014400 0.528600
vt 0.489900 0.528500
vt 0.014400 0.528500
vt 0.014400 0.510400
vt 0.489900 0.510400
vt 0.056200 0.549000
vt 0.454300 0.549000
vt 0.454300 0.947100
vt 0.056200 0.947100
vt 0.454300 0.549000
vt 0.454300 0.947100
vt 0.056200 0.947100
vt 0.056200 0.549000
vt 0.947600 0.452400
vt 0.947600 0.058200
vt 0.553400 0.058200
vt 0.553400 0.452400
vt 0.553400 0.550900
vt 0.947700 0.550900
vt 0.947700 0.945200
vt 0.553400 0.945200
vt 0.058100 0.452400
vt 0.058100 0.058200
vt 0.452300 0.058200
vt 0.452300 0.452400
vt 0.553400 0.945200
vt 0.947700 0.945200
vt 0.947700 0.550900
vt 0.553400 0.550900
vn 0.0000 0.0000 1.0000
vn 0.0000 0.0000 -1.0000
vn 0.0000 -1.0000 -0.0000
vn 1.0000 -0.0000 0.0000
vn 0.0000 1.0000 0.0000
vn -1.0000 0.0000 0.0000
vn 0.5773 0.5774 0.5774
vn -0.5773 0.5774 0.5774
vn -0.5774 -0.5773 0.5774
vn 0.5774 -0.5773 0.5774
vn 0.5774 0.5773 -0.5774
vn 0.5773 -0.5774 -0.5774
vn -0.5773 -0.5774 -0.5774
vn -0.5774 0.5773 -0.5774
vn 0.5774 -0.5774 -0.5773
vn 0.5773 -0.5774 0.5774
vn -0.5773 -0.5774 0.5774
vn -0.5774 -0.5774 -0.5773
vn 0.5774 0.5774 0.5773
vn -0.5773 0.5774 -0.5774
vn -0.5774 0.5774 0.5773
vn 0.5773 0.5774 -0.5774
usemtl wire_153228153
s off
f 1/1/1 2/2/1 3/3/1 4/4/1
f 2/2/1 5/5/1 6/6/1 3/3/1
f 5/5/1 7/7/1 8/8/1 6/6/1
f 7/7/1 1/1/1 4/4/1 8/8/1
f 9/9/2 10/10/2 11/11/2 12/12/2
f 10/10/2 13/13/2 14/14/2 11/11/2
f 13/13/2 15/15/2 16/16/2 14/14/2
f 15/15/2 9/9/2 12/12/2 16/16/2
f 1/17/3 9/18/3 17/19/3 18/20/3
f 9/18/3 15/21/3 19/22/3 17/19/3
f 15/21/3 2/23/3 20/24/3 19/22/3
f 2/23/3 1/17/3 18/20/3 20/24/3
f 2/25/4 15/26/4 21/27/4 22/28/4
f 15/26/4 13/29/4 23/30/4 21/27/4
f 13/29/4 5/31/4 24/32/4 23/30/4
f 5/31/4 2/25/4 22/28/4 24/32/4
f 5/33/5 13/34/5 25/35/5 26/36/5
f 13/34/5 10/37/5 27/38/5 25/35/5
f 10/37/5 7/39/5 28/40/5 27/38/5
f 7/39/5 5/33/5 26/36/5 28/40/5
f 7/41/6 10/42/6 29/43/6 30/44/6
f 10/42/6 9/45/6 31/46/6 29/43/6
f 9/45/6 1/47/6 32/48/6 31/46/6
f 1/47/6 7/41/6 30/44/6 32/48/6
f 4/49/5 3/50/5 33/51/5 34/52/5
f 3/53/6 6/54/6 35/55/6 33/56/6
f 6/57/3 8/58/3 36/59/3 35/60/3
f 8/61/4 4/62/4 34/63/4 36/64/4
f 12/65/4 11/66/4 37/67/4 38/68/4
f 11/69/3 14/70/3 39/71/3 37/72/3
f 14/73/6 16/74/6 40/75/6 39/76/6
f 16/77/5 12/78/5 38/79/5 40/80/5
f 18/81/4 17/82/4 41/83/4 42/84/4
f 17/85/1 19/86/1 43/87/1 41/88/1
f 19/89/6 20/90/6 44/91/6 43/92/6
f 20/93/2 18/94/2 42/95/2 44/96/2
f 22/97/5 21/98/5 45/99/5 46/100/5
f 21/101/1 23/102/1 47/103/1 45/104/1
f 23/105/3 24/106/3 48/107/3 47/108/3
f 24/109/2 22/110/2 46/111/2 48/112/2
f 26/113/6 25/114/6 49/115/6 50/116/6
f 25/117/1 27/118/1 51/119/1 49/120/1
f 27/121/4 28/122/4 52/123/4 51/124/4
f 28/125/2 26/126/2 50/127/2 52/128/2
f 30/129/3 29/130/3 53/131/3 54/132/3
f 29/133/1 31/134/1 55/135/1 53/136/1
f 31/137/5 32/138/5 56/139/5 55/140/5
f 32/141/2 30/142/2 54/143/2 56/144/2
s 1
f 34/145/7 33/146/8 35/147/9 36/148/10
f 38/149/11 37/150/12 39/151/13 40/152/14
f 42/153/15 41/154/16 43/155/17 44/156/18
f 46/157/11 45/158/19 47/159/10 48/160/15
f 50/161/20 49/162/21 51/163/19 52/164/22
f 54/165/18 53/166/9 55/167/21 56/168/14
