# Blender v2.79 (sub 0) OBJ File: 'Ramp 1-1.blend'
# www.blender.org
mtllib Ramp.mtl
o Ramp
v -1.000000 0.000000 2.919477
v -1.000000 4.167696 -0.759138
v -1.000000 0.000000 -1.000000
v -1.000000 4.167696 -1.000000
v 1.000000 0.000000 2.919477
v 1.000000 4.167696 -0.759138
v 1.000000 0.000000 -1.000000
v 1.000000 4.167696 -1.000000
vt 0.376092 0.282274
vt 0.376092 0.682513
vt 0.353989 0.693989
vt 0.016419 0.469018
vt 0.376092 0.999925
vt 0.376092 0.699855
vt 0.620889 0.699855
vt 0.620889 0.999925
vt 0.980561 0.469018
vt 0.642992 0.693989
vt 0.620889 0.682513
vt 0.620888 0.282274
vt 0.376092 0.000075
vt 0.620888 0.000075
vn -1.0000 0.0000 0.0000
vn 0.0000 0.0000 -1.0000
vn 1.0000 0.0000 0.0000
vn 0.0000 0.6617 0.7497
vn 0.0000 -1.0000 0.0000
vn 0.0000 1.0000 0.0000
usemtl Ramp
s off
f 1/1/1 2/2/1 4/3/1 3/4/1
f 3/5/2 4/6/2 8/7/2 7/8/2
f 7/9/3 8/10/3 6/11/3 5/12/3
f 5/12/4 6/11/4 2/2/4 1/1/4
f 3/13/5 7/14/5 5/12/5 1/1/5
f 8/7/6 4/6/6 2/2/6 6/11/6
